REM DIRINDEX 1\2,1\3,1\4,1\5,1\6,1\7,1\8
REM DIRNAME cjc150,folder01,folder02,folder03,folder04,folder05,folder06,folder07
TITLE ""
FILE "008 ‚Å‚é•¶28.mp3" MP3
  TRACK 01 AUDIO
    TITLE "8:cjc150_1250"
    INDEX 01 00:00:00
  TRACK 02 AUDIO
    TITLE "0:"
    INDEX 01 00:01:58
  TRACK 03 AUDIO
    TITLE "2:cjc150_1251"
    INDEX 01 00:02:47
  TRACK 04 AUDIO
    TITLE "0:"
    INDEX 01 00:10:23
  TRACK 05 AUDIO
    TITLE "8:cjc150_1252"
    INDEX 01 00:11:52
  TRACK 06 AUDIO
    TITLE "0:"
    INDEX 01 00:14:29
  TRACK 07 AUDIO
    TITLE "3:cjc150_1253"
    INDEX 01 00:14:68
  TRACK 08 AUDIO
    TITLE "3:cjc150_1254"
    INDEX 01 00:16:22
  TRACK 09 AUDIO
    TITLE "3:cjc150_1255"
    INDEX 01 00:17:45
  TRACK 10 AUDIO
    TITLE "3:cjc150_1256"
    INDEX 01 00:20:39
  TRACK 11 AUDIO
    TITLE "3:cjc150_1257"
    INDEX 01 00:23:22
  TRACK 12 AUDIO
    TITLE "3:cjc150_1258"
    INDEX 01 00:24:67
  TRACK 13 AUDIO
    TITLE "3:cjc150_1259"
    INDEX 01 00:26:44
  TRACK 14 AUDIO
    TITLE "3:cjc150_1260"
    INDEX 01 00:28:17
  TRACK 15 AUDIO
    TITLE "3:cjc150_1261"
    INDEX 01 00:29:68
  TRACK 16 AUDIO
    TITLE "3:cjc150_1262"
    INDEX 01 00:32:03
  TRACK 17 AUDIO
    TITLE "8:cjc150_1263"
    INDEX 01 00:34:08
  TRACK 18 AUDIO
    TITLE "0:"
    INDEX 01 00:36:60
  TRACK 19 AUDIO
    TITLE "4:cjc150_1264"
    INDEX 01 00:37:36
  TRACK 20 AUDIO
    TITLE "4:cjc150_1265"
    INDEX 01 00:40:64
  TRACK 21 AUDIO
    TITLE "4:cjc150_1266"
    INDEX 01 00:44:44
  TRACK 22 AUDIO
    TITLE "4:cjc150_1267"
    INDEX 01 00:47:11
  TRACK 23 AUDIO
    TITLE "4:cjc150_1268"
    INDEX 01 00:50:15
  TRACK 24 AUDIO
    TITLE "4:cjc150_1269"
    INDEX 01 00:52:32
  TRACK 25 AUDIO
    TITLE "8:cjc150_1270"
    INDEX 01 00:55:06
  TRACK 26 AUDIO
    TITLE "0:"
    INDEX 01 00:58:01
  TRACK 27 AUDIO
    TITLE "5:cjc150_1271"
    INDEX 01 00:58:54
  TRACK 28 AUDIO
    TITLE "5:cjc150_1272"
    INDEX 01 01:00:27
  TRACK 29 AUDIO
    TITLE "5:cjc150_1273"
    INDEX 01 01:02:36
  TRACK 30 AUDIO
    TITLE "5:cjc150_1274"
    INDEX 01 01:03:65
  TRACK 31 AUDIO
    TITLE "5:cjc150_1275"
    INDEX 01 01:05:01
  TRACK 32 AUDIO
    TITLE "5:cjc150_1276"
    INDEX 01 01:08:01
  TRACK 33 AUDIO
    TITLE "5:cjc150_1277"
    INDEX 01 01:11:62
  TRACK 34 AUDIO
    TITLE "5:cjc150_1278"
    INDEX 01 01:14:57
  TRACK 35 AUDIO
    TITLE "5:cjc150_1279"
    INDEX 01 01:17:39
  TRACK 36 AUDIO
    TITLE "5:cjc150_1280"
    INDEX 01 01:19:09
  TRACK 37 AUDIO
    TITLE "5:cjc150_1281"
    INDEX 01 01:21:33
  TRACK 38 AUDIO
    TITLE "5:cjc150_1282"
    INDEX 01 01:23:05
  TRACK 39 AUDIO
    TITLE "5:cjc150_1283"
    INDEX 01 01:24:28
  TRACK 40 AUDIO
    TITLE "5:cjc150_1284"
    INDEX 01 01:26:21
  TRACK 41 AUDIO
    TITLE "5:cjc150_1285"
    INDEX 01 01:28:61
  TRACK 42 AUDIO
    TITLE "5:cjc150_1286"
    INDEX 01 01:30:36
  TRACK 43 AUDIO
    TITLE "5:cjc150_1287"
    INDEX 01 01:32:08
  TRACK 44 AUDIO
    TITLE "5:cjc150_1288"
    INDEX 01 01:33:70
  TRACK 45 AUDIO
    TITLE "5:cjc150_1289"
    INDEX 01 01:36:72
  TRACK 46 AUDIO
    TITLE "5:cjc150_1290"
    INDEX 01 01:39:08
  TRACK 47 AUDIO
    TITLE "8:cjc150_1291"
    INDEX 01 01:41:26
  TRACK 48 AUDIO
    TITLE "0:"
    INDEX 01 01:44:03
  TRACK 49 AUDIO
    TITLE "6:cjc150_1292"
    INDEX 01 01:44:66
  TRACK 50 AUDIO
    TITLE "6:cjc150_1293"
    INDEX 01 01:48:11
  TRACK 51 AUDIO
    TITLE "6:cjc150_1294"
    INDEX 01 01:52:38
  TRACK 52 AUDIO
    TITLE "6:cjc150_1295"
    INDEX 01 01:55:65
  TRACK 53 AUDIO
    TITLE "6:cjc150_1296"
    INDEX 01 01:59:30
  TRACK 54 AUDIO
    TITLE "6:cjc150_1297"
    INDEX 01 02:02:34
  TRACK 55 AUDIO
    TITLE "6:cjc150_1298"
    INDEX 01 02:06:03
  TRACK 56 AUDIO
    TITLE "6:cjc150_1299"
    INDEX 01 02:08:37
  TRACK 57 AUDIO
    TITLE "6:cjc150_1300"
    INDEX 01 02:10:73
  TRACK 58 AUDIO
    TITLE "6:cjc150_1301"
    INDEX 01 02:12:60
  TRACK 59 AUDIO
    TITLE "6:cjc150_1302"
    INDEX 01 02:15:72
  TRACK 60 AUDIO
    TITLE "6:cjc150_1303"
    INDEX 01 02:18:14
  TRACK 61 AUDIO
    TITLE "8:cjc150_1304"
    INDEX 01 02:19:64
  TRACK 62 AUDIO
    TITLE "0:"
    INDEX 01 02:21:43
  TRACK 63 AUDIO
    TITLE "7:cjc150_1305"
    INDEX 01 02:22:27
  TRACK 64 AUDIO
    TITLE "7:cjc150_1306"
    INDEX 01 02:30:05
  TRACK 65 AUDIO
    TITLE "0:"
    INDEX 01 02:38:01
